<?xml version="1.0" encoding="utf-8"?>
<!-- Generator: Adobe Illustrator 28.3.0, SVG Export Plug-In . SVG Version: 6.00 Build 0)  -->
<svg version="1.1" id="Layer_1" xmlns="http://www.w3.org/2000/svg" xmlns:xlink="http://www.w3.org/1999/xlink" x="0px" y="0px"
	 viewBox="0 0 1920 1920" style="enable-background:new 0 0 1920 1920;" xml:space="preserve">
<style type="text/css">
	.st0{clip-path:url(#SVGID_00000146460239033711566850000007375174509431754415_);}
	.st1{fill:none;stroke:#000000;stroke-width:60;}
	.st2{fill:none;}
	.st3{fill:#6A37A6;}
</style>
<g>
	<defs>
		<rect id="SVGID_1_" x="0" y="0.9" width="1920" height="1919"/>
	</defs>
	<clipPath id="SVGID_00000019679843270858109300000014323719563775646905_">
		<use xlink:href="#SVGID_1_"  style="overflow:visible;"/>
	</clipPath>
	<g style="clip-path:url(#SVGID_00000019679843270858109300000014323719563775646905_);">
		<path class="st1" d="M0,0.9h1920V1920H0V0.9z"/>
	</g>
</g>
<path d="M1020.6,976.5h-611c7.2,68.5,36.2,124.9,87.1,169.5c50.9,44.6,111,66.4,180.2,65.7c107.4-1.6,184.2-51.3,230.3-149.2h96.7
	c-25.5,73.2-68.4,131.3-128.9,174.3c-60.5,43-127.7,64.9-201.6,65.7c-93.1,1.6-175.4-32.4-247-102.1
	c-71.6-69.7-108.2-152.6-109.8-248.9c-2.4-101.9,33.6-189.6,108-263.2c74.4-73.6,162.1-107.7,263.2-102.1
	c90.7,5.6,169.4,43,236.3,112.2c64.5,68.5,96.7,144.8,96.7,229.2V976.5z M931.1,892.9c-12.7-63.7-42.6-115.2-89.5-154.6
	c-46.9-39.4-103-59.5-168.3-60.3c-65.2-0.8-122.3,18.7-171.2,58.5c-49,39.8-79.8,91.9-92.5,156.4L931.1,892.9L931.1,892.9z"/>
<rect x="872" y="546.7" class="st2" width="577.3" height="935.7"/>
<path d="M829.4,752.8c-11.5-9.7-23.7-18.1-36.6-25.3c-25.2,44.5-39.7,93.4-43.5,146.5h91c3-30.2,10.9-58.7,23.7-85.4
	C853.9,775.7,842.4,763.7,829.4,752.8z"/>
<path d="M833.2,1135.2c21.1-19.8,39.1-44.7,54-74.8c-14.6-20.2-25.8-41.9-33.8-64.9h-93.7C773,1046.5,797.4,1093.1,833.2,1135.2z"/>
<g>
	<path d="M937.5,685.3l0.2,0.2c1.6,1.7,3.1,3.3,4.6,5c42.3-34.3,91.1-52.5,146.2-54.4c68.6-3.6,128.1,17.8,178.4,64.2l64.9-61.3
		c-69.8-63.8-151.3-94.1-244.5-91.2c-82.6,2.1-154.1,29.6-214.6,82.5C895.5,645.8,917.1,664.1,937.5,685.3z"/>
	<path d="M1335.5,794.2c16,35.8,23.6,74.6,22.7,116.4c-1.6,71.9-27.2,133.5-76.7,184.7c-49.6,51.1-109.1,76.7-178.6,76.7
		c-42.8,0-81.9-8.9-117.2-26.6c-16,26.2-35,50-56.9,71.1c53.5,31.3,113.3,46,179.3,43.8c99.2-4,182.6-44.2,250.1-120.6v342.6h90.7
		V903.4c0.9-38.4-4-74.8-14.8-109.2H1335.5z"/>
</g>
<g>
	<g transform="translate(940.43513, 581.434636)">
		<g>
			<g>
				<path class="st3" d="M593,128.1v65.7H329.9v-52.2L464.2,14.7c14.3-13.6,23.9-25.3,28.9-35.1c5-9.8,7.5-19.5,7.5-29.1
					c0-13.9-4.7-24.6-14.2-32.1c-9.4-7.5-23.3-11.2-41.5-11.2c-15.2,0-29,2.9-41.3,8.7c-12.3,5.8-22.5,14.5-30.8,26.1L314-95.7
					c13.6-20.2,32.3-36.1,56.2-47.5c23.9-11.4,51.2-17.2,82.1-17.2c25.9,0,48.5,4.2,67.9,12.7c19.4,8.5,34.5,20.4,45.3,35.8
					c10.8,15.4,16.2,33.6,16.2,54.5c0,18.9-4,36.6-11.9,53.2c-8,16.6-23.4,35.5-46.2,56.7l-80.1,75.6H593z"/>
			</g>
		</g>
	</g>
</g>
</svg>
